<svg xmlns="http://www.w3.org/2000/svg" xmlns:xlink="http://www.w3.org/1999/xlink" width="500" zoomAndPan="magnify" viewBox="0 0 375 374.999991" height="500" preserveAspectRatio="xMidYMid meet" version="1.0"><defs><clipPath id="id1"><path d="M 114.546875 83 L 257 83 L 257 375 L 114.546875 375 Z M 114.546875 83 " clip-rule="nonzero"/></clipPath></defs><g clip-path="url(#id1)"><path fill="rgb(100%, 100%, 100%)" d="M 218.070312 83.503906 L 199.246094 92.890625 C 199.246094 92.890625 227.480469 139.820312 227.480469 149.222656 L 209.980469 149.222656 C 209.542969 149.484375 209.109375 149.742188 208.65625 149.984375 C 196.855469 157.128906 181.9375 155.925781 170.308594 149.222656 L 152.191406 149.222656 C 114.546875 149.222656 114.546875 243.109375 114.546875 243.109375 L 142.777344 243.109375 L 152.191406 186.777344 L 152.191406 261.886719 L 133.367188 374.546875 L 171.011719 374.546875 L 189.835938 280.664062 L 208.65625 374.546875 L 246.300781 374.546875 L 227.480469 261.886719 L 227.480469 186.777344 C 227.480469 186.777344 252.535156 164.546875 255.714844 149.222656 C 260.839844 124.515625 218.070312 83.503906 218.070312 83.503906 Z M 190.335938 89.105469 C 189.90625 89.105469 189.46875 89.121094 189.039062 89.136719 C 166.519531 88.460938 149.96875 116.359375 161.25 135.753906 C 165.199219 143.820312 172.84375 149.324219 181.363281 151.65625 C 181.972656 151.824219 182.601562 151.964844 183.21875 152.097656 C 183.425781 152.140625 183.628906 152.175781 183.835938 152.214844 C 184.246094 152.296875 184.65625 152.382812 185.070312 152.449219 C 185.753906 152.558594 186.441406 152.640625 187.128906 152.714844 C 187.695312 152.773438 188.238281 152.832031 188.804688 152.859375 C 188.980469 152.871094 189.160156 152.882812 189.335938 152.890625 C 189.578125 152.898438 189.828125 152.886719 190.070312 152.890625 C 190.363281 152.898438 190.660156 152.917969 190.953125 152.917969 C 199.027344 152.859375 206.960938 149.925781 212.570312 143.679688 C 215.613281 140.707031 217.898438 137.109375 219.421875 133.203125 C 212.726562 118.945312 204.207031 105.476562 196.421875 91.835938 C 197.5625 91.460938 198.695312 91.070312 199.835938 90.691406 C 196.777344 89.675781 193.570312 89.125 190.335938 89.109375 Z M 190.335938 89.105469 " fill-opacity="1" fill-rule="nonzero"/></g><path fill="rgb(100%, 100%, 100%)" d="M 188.101562 0.46875 C 187.15625 0.457031 185.738281 0.761719 183.898438 1.351562 C 182.054688 1.941406 180.308594 2.914062 178.632812 4.253906 C 177.964844 4.863281 177.445312 5.421875 177.074219 5.984375 C 176.707031 6.550781 176.519531 7.238281 176.515625 8.011719 C 176.609375 9.273438 177.171875 10.359375 178.191406 11.265625 C 179.210938 12.175781 180.136719 12.664062 180.957031 12.703125 C 181.59375 12.46875 182.898438 11.515625 184.867188 9.859375 C 186.839844 8.203125 189.417969 7.25 192.601562 7.011719 C 194.402344 7.023438 195.777344 7.464844 196.75 8.332031 C 197.71875 9.203125 198.210938 10.433594 198.21875 12.03125 C 198.050781 13.871094 196.882812 15.679688 194.71875 17.457031 C 192.558594 19.234375 190.402344 20.828125 188.28125 22.210938 C 185.148438 24.476562 182.941406 26.453125 181.664062 28.167969 C 180.382812 29.878906 179.765625 31.597656 179.808594 33.300781 C 180.03125 36.335938 181.417969 38.988281 183.957031 41.28125 C 186.492188 43.574219 188.867188 45.097656 191.074219 45.886719 L 192.777344 43.597656 C 191.386719 42.378906 190.347656 41.183594 189.632812 40.050781 C 188.917969 38.914062 188.546875 37.601562 188.542969 36.117188 C 188.800781 33.839844 190.21875 31.734375 192.808594 29.78125 C 195.398438 27.824219 197.609375 26.222656 199.457031 24.96875 C 201.222656 23.578125 202.492188 22.195312 203.25 20.800781 C 204.007812 19.410156 204.386719 17.859375 204.367188 16.136719 C 204.210938 11.960938 202.5625 8.335938 199.394531 5.28125 C 196.230469 2.230469 192.484375 0.621094 188.160156 0.472656 L 188.101562 0.472656 Z M 233.277344 10.679688 C 231.804688 10.679688 230.300781 10.902344 228.746094 11.324219 C 227.894531 11.617188 227.195312 11.949219 226.628906 12.324219 C 226.066406 12.695312 225.617188 13.230469 225.308594 13.9375 C 224.890625 15.132812 224.96875 16.367188 225.542969 17.605469 C 226.117188 18.84375 226.777344 19.644531 227.511719 20.011719 C 228.191406 20.046875 229.75 19.695312 232.21875 18.953125 C 234.683594 18.214844 237.433594 18.347656 240.453125 19.394531 C 242.097656 20.117188 243.203125 21.058594 243.746094 22.238281 C 244.292969 23.421875 244.253906 24.761719 243.628906 26.230469 C 242.742188 27.855469 240.941406 29.066406 238.246094 29.839844 C 235.554688 30.613281 232.949219 31.203125 230.453125 31.628906 C 226.679688 32.46875 223.867188 33.410156 222.011719 34.472656 C 220.15625 35.539062 218.914062 36.882812 218.277344 38.464844 C 217.273438 41.335938 217.480469 44.304688 218.894531 47.414062 C 220.3125 50.519531 221.890625 52.886719 223.601562 54.484375 L 226.070312 53.046875 C 225.277344 51.375 224.804688 49.882812 224.601562 48.558594 C 224.398438 47.230469 224.574219 45.871094 225.160156 44.507812 C 226.300781 42.519531 228.445312 41.140625 231.601562 40.371094 C 234.753906 39.601562 237.4375 39.03125 239.628906 38.609375 C 241.804688 38.035156 243.527344 37.242188 244.777344 36.265625 C 246.027344 35.285156 246.960938 34.007812 247.628906 32.421875 C 249.148438 28.527344 249.085938 24.566406 247.394531 20.507812 C 245.703125 16.453125 242.890625 13.496094 238.984375 11.648438 L 238.925781 11.617188 C 238.058594 11.230469 236.671875 10.957031 234.746094 10.769531 C 234.265625 10.722656 233.769531 10.679688 233.277344 10.679688 Z M 144.398438 11.679688 C 142.871094 11.722656 141.332031 11.984375 139.78125 12.46875 L 139.722656 12.5 C 138.824219 12.800781 137.589844 13.535156 136.046875 14.699219 C 134.507812 15.867188 133.183594 17.367188 132.046875 19.1875 C 131.621094 19.980469 131.324219 20.703125 131.164062 21.359375 C 131.003906 22.015625 131.03125 22.714844 131.28125 23.441406 C 131.792969 24.605469 132.695312 25.445312 133.960938 25.964844 C 135.222656 26.484375 136.230469 26.609375 137.019531 26.375 C 137.542969 25.941406 138.476562 24.628906 139.78125 22.414062 C 141.089844 20.203125 143.207031 18.441406 146.136719 17.164062 C 147.835938 16.578125 149.28125 16.546875 150.488281 17.046875 C 151.691406 17.546875 152.5625 18.539062 153.105469 20.039062 C 153.558594 21.835938 153.054688 23.925781 151.605469 26.316406 C 150.15625 28.710938 148.675781 30.914062 147.136719 32.917969 C 144.933594 36.09375 143.507812 38.714844 142.871094 40.753906 C 142.234375 42.792969 142.203125 44.589844 142.8125 46.179688 C 144.027344 48.96875 146.214844 51.019531 149.371094 52.34375 C 152.523438 53.664062 155.289062 54.351562 157.632812 54.367188 L 158.488281 51.609375 C 156.769531 50.921875 155.390625 50.15625 154.339844 49.320312 C 153.289062 48.484375 152.511719 47.371094 152.015625 45.976562 C 151.5 43.742188 152.136719 41.28125 153.929688 38.582031 C 155.71875 35.882812 157.28125 33.625 158.605469 31.832031 C 159.808594 29.9375 160.527344 28.203125 160.78125 26.640625 C 161.035156 25.078125 160.871094 23.476562 160.28125 21.859375 C 158.746094 17.972656 155.960938 15.125 151.957031 13.292969 C 149.457031 12.144531 146.949219 11.601562 144.398438 11.675781 Z M 189.339844 54.015625 C 187.710938 54.058594 186.375 54.636719 185.308594 55.746094 C 184.246094 56.851562 183.699219 58.222656 183.660156 59.882812 C 183.703125 61.691406 184.230469 63.132812 185.28125 64.195312 C 186.332031 65.261719 187.65625 65.8125 189.21875 65.839844 L 189.339844 65.839844 C 190.996094 65.8125 192.355469 65.261719 193.425781 64.195312 C 194.496094 63.132812 195.066406 61.691406 195.101562 59.882812 C 195.066406 58.222656 194.496094 56.851562 193.425781 55.746094 C 192.355469 54.636719 190.996094 54.058594 189.339844 54.015625 Z M 216.542969 60.792969 C 215.808594 60.789062 215.105469 60.933594 214.394531 61.230469 C 212.976562 61.828125 211.914062 62.890625 211.21875 64.402344 C 210.539062 66.074219 210.472656 67.613281 211.011719 69.007812 C 211.554688 70.398438 212.527344 71.417969 213.953125 72.058594 L 214.070312 72.085938 C 215.605469 72.722656 217.078125 72.789062 218.484375 72.234375 C 219.890625 71.679688 220.964844 70.5625 221.71875 68.917969 C 222.34375 67.378906 222.378906 65.898438 221.835938 64.460938 C 221.292969 63.019531 220.28125 61.957031 218.777344 61.261719 C 218.023438 60.957031 217.273438 60.792969 216.542969 60.792969 Z M 160.429688 62.257812 C 159.863281 62.28125 159.285156 62.390625 158.691406 62.582031 C 157.171875 63.160156 156.09375 64.148438 155.457031 65.546875 C 154.820312 66.941406 154.765625 68.425781 155.28125 70.003906 C 155.921875 71.695312 156.9375 72.867188 158.28125 73.523438 C 159.625 74.183594 161.03125 74.285156 162.515625 73.789062 L 162.632812 73.730469 C 164.191406 73.160156 165.300781 72.183594 165.957031 70.824219 C 166.613281 69.46875 166.667969 67.9375 166.105469 66.21875 C 165.515625 64.667969 164.511719 63.566406 163.132812 62.875 C 162.273438 62.445312 161.367188 62.222656 160.429688 62.257812 Z M 160.429688 62.257812 " fill-opacity="1" fill-rule="nonzero"/></svg>