<svg xmlns="http://www.w3.org/2000/svg" xmlns:xlink="http://www.w3.org/1999/xlink" width="500" zoomAndPan="magnify" viewBox="0 0 375 374.999991" height="500" preserveAspectRatio="xMidYMid meet" version="1.0"><defs><clipPath id="id1"><path d="M 288 10 L 342 10 L 342 68 L 288 68 Z M 288 10 " clip-rule="nonzero"/></clipPath><clipPath id="id2"><path d="M 294.832031 7.445312 L 348.386719 14.363281 L 341.46875 67.917969 L 287.914062 61 Z M 294.832031 7.445312 " clip-rule="nonzero"/></clipPath><clipPath id="id3"><path d="M 294.832031 7.445312 L 348.386719 14.363281 L 341.46875 67.917969 L 287.914062 61 Z M 294.832031 7.445312 " clip-rule="nonzero"/></clipPath><clipPath id="id4"><path d="M 294.832031 7.445312 L 348.386719 14.363281 L 341.46875 67.917969 L 287.914062 61 Z M 294.832031 7.445312 " clip-rule="nonzero"/></clipPath><clipPath id="id5"><path d="M 26.933594 35.660156 L 83.933594 35.660156 L 83.933594 92.660156 L 26.933594 92.660156 Z M 26.933594 35.660156 " clip-rule="nonzero"/></clipPath><clipPath id="id6"><path d="M 294 122 L 360 122 L 360 207 L 294 207 Z M 294 122 " clip-rule="nonzero"/></clipPath><clipPath id="id7"><path d="M 297.097656 122.398438 L 370.046875 139.808594 L 353.855469 207.652344 L 280.90625 190.242188 Z M 297.097656 122.398438 " clip-rule="nonzero"/></clipPath><clipPath id="id8"><path d="M 297.097656 122.398438 L 370.046875 139.808594 L 353.855469 207.652344 L 280.90625 190.242188 Z M 297.097656 122.398438 " clip-rule="nonzero"/></clipPath><clipPath id="id9"><path d="M 297.097656 122.398438 L 370.046875 139.808594 L 353.855469 207.652344 L 280.90625 190.242188 Z M 297.097656 122.398438 " clip-rule="nonzero"/></clipPath><clipPath id="id10"><path d="M 6 169 L 69 169 L 69 219 L 6 219 Z M 6 169 " clip-rule="nonzero"/></clipPath><clipPath id="id11"><path d="M 6.308594 178.507812 L 56.308594 165.171875 L 68.484375 210.824219 L 18.480469 224.160156 Z M 6.308594 178.507812 " clip-rule="nonzero"/></clipPath><clipPath id="id12"><path d="M 6.308594 178.507812 L 56.308594 165.171875 L 68.484375 210.824219 L 18.480469 224.160156 Z M 6.308594 178.507812 " clip-rule="nonzero"/></clipPath><clipPath id="id13"><path d="M 6.308594 178.507812 L 56.308594 165.171875 L 68.484375 210.824219 L 18.480469 224.160156 Z M 6.308594 178.507812 " clip-rule="nonzero"/></clipPath><clipPath id="id14"><path d="M 12 174 L 62 174 L 62 214 L 12 214 Z M 12 174 " clip-rule="nonzero"/></clipPath><clipPath id="id15"><path d="M 6.308594 178.507812 L 56.308594 165.171875 L 68.484375 210.824219 L 18.480469 224.160156 Z M 6.308594 178.507812 " clip-rule="nonzero"/></clipPath><clipPath id="id16"><path d="M 6.308594 178.507812 L 56.308594 165.171875 L 68.484375 210.824219 L 18.480469 224.160156 Z M 6.308594 178.507812 " clip-rule="nonzero"/></clipPath><clipPath id="id17"><path d="M 6.308594 178.507812 L 56.308594 165.171875 L 68.484375 210.824219 L 18.480469 224.160156 Z M 6.308594 178.507812 " clip-rule="nonzero"/></clipPath><clipPath id="id18"><path d="M 22 181 L 57 181 L 57 209 L 22 209 Z M 22 181 " clip-rule="nonzero"/></clipPath><clipPath id="id19"><path d="M 6.308594 178.507812 L 56.308594 165.171875 L 68.484375 210.824219 L 18.480469 224.160156 Z M 6.308594 178.507812 " clip-rule="nonzero"/></clipPath><clipPath id="id20"><path d="M 6.308594 178.507812 L 56.308594 165.171875 L 68.484375 210.824219 L 18.480469 224.160156 Z M 6.308594 178.507812 " clip-rule="nonzero"/></clipPath><clipPath id="id21"><path d="M 6.308594 178.507812 L 56.308594 165.171875 L 68.484375 210.824219 L 18.480469 224.160156 Z M 6.308594 178.507812 " clip-rule="nonzero"/></clipPath></defs><path fill="rgb(75.689697%, 75.689697%, 74.899292%)" d="M 266.84375 283.246094 C 258.058594 282.492188 251.152344 276.015625 250.527344 263.148438 C 252.542969 228.980469 254.5625 193.617188 230.664062 170.808594 C 226.945312 142.410156 213.71875 131.980469 207.488281 113.742188 L 197.667969 106.777344 L 209.414062 88.585938 L 214.4375 88.71875 L 263.484375 186.867188 L 273.75 236.34375 Z M 266.84375 283.246094 " fill-opacity="1" fill-rule="nonzero"/><path fill="rgb(75.689697%, 75.689697%, 74.899292%)" d="M 146.601562 105.847656 C 145.121094 115.433594 144.3125 124.839844 145.703125 133.9375 C 135.480469 147.691406 127.726562 161.582031 126.828125 175.867188 C 119.070312 196.324219 100.644531 213.628906 103.828125 254.007812 C 114.183594 264.703125 128.667969 274.640625 141.085938 284.980469 C 156.6875 297.894531 147.40625 314.933594 125.4375 310.894531 C 120.550781 305.570312 109.476562 272.203125 88.496094 251.65625 L 92.621094 224.722656 L 112.4375 172.230469 L 137.09375 133.179688 L 139.828125 116.320312 L 136.378906 73.234375 L 139.246094 57.480469 Z M 146.601562 105.847656 " fill-opacity="1" fill-rule="nonzero"/><path fill="rgb(100%, 100%, 100%)" d="M 141.175781 105.585938 C 128.460938 154.054688 100.5 197.480469 94.738281 221.710938 C 88.976562 245.945312 96.179688 291.558594 110.582031 315.792969 C 124.984375 340.027344 199.878906 350.003906 217.160156 335.75 C 234.445312 321.496094 305.019531 207.457031 273.332031 183.222656 C 241.644531 158.992188 250.289062 83.441406 222.921875 84.867188 C 195.558594 86.292969 142.617188 109.863281 141.175781 105.585938 Z M 141.175781 105.585938 " fill-opacity="1" fill-rule="evenodd"/><path fill="rgb(75.689697%, 75.689697%, 74.899292%)" d="M 133.777344 45.277344 C 134.363281 42.171875 135.125 39.246094 136.066406 36.492188 L 137.542969 46.121094 Z M 133.777344 45.277344 " fill-opacity="1" fill-rule="nonzero"/><path fill="rgb(75.689697%, 75.689697%, 74.899292%)" d="M 137.097656 143.289062 C 129.253906 157.667969 126.519531 171.511719 144.542969 173.953125 C 134.632812 176.214844 122.304688 185.3125 109.839844 200.621094 L 110.109375 169.515625 L 124.949219 145.019531 L 137.101562 143.289062 Z M 137.097656 143.289062 " fill-opacity="1" fill-rule="nonzero"/><path fill="rgb(75.689697%, 75.689697%, 74.899292%)" d="M 41.0625 339.292969 C 68.324219 351.40625 87.554688 350.742188 104.90625 359.304688 C 118.625 366.449219 132.480469 365.605469 140.820312 356.953125 C 147.902344 347.902344 153.148438 347.457031 163.59375 346.527344 C 180.675781 345.503906 197.351562 345.328125 212.417969 346.882812 L 229.632812 348.257812 C 229.320312 367.382812 266.039062 369.734375 276.84375 355.222656 C 289.886719 339.871094 307.820312 332.992188 323.199219 321.855469 L 241.914062 282.007812 C 221.066406 331.882812 143.371094 344.929688 132.609375 305.257812 Z M 41.0625 339.292969 " fill-opacity="1" fill-rule="nonzero"/><path fill="rgb(0%, 0%, 0%)" d="M 38.511719 340.976562 C 66.21875 353.089844 85.808594 352.382812 103.472656 360.988281 C 117.417969 368.089844 131.496094 367.289062 140.011719 358.59375 C 147.230469 349.585938 152.566406 349.140625 163.191406 348.210938 C 180.542969 347.144531 197.535156 347.011719 212.867188 348.519531 L 230.351562 349.941406 C 230.039062 369.066406 267.429688 371.375 278.414062 356.863281 C 291.683594 341.511719 309.929688 334.675781 325.578125 323.496094 L 242.859375 283.691406 C 221.652344 333.523438 142.613281 346.570312 131.671875 306.945312 L 38.507812 340.976562 Z M 38.511719 340.976562 " fill-opacity="1" fill-rule="nonzero"/><path fill="rgb(71.759033%, 74.119568%, 0%)" d="M 299.835938 261.324219 C 313.105469 265.628906 304.542969 278.761719 311.3125 286.304688 C 314.226562 292.695312 320.371094 298.332031 330.636719 303.566406 C 347.804688 312.128906 327.183594 327.484375 306.335938 335.335938 C 280.917969 343.679688 275.984375 366.664062 248.144531 359.875 C 238.054688 356.546875 235.097656 347.496094 235.410156 333.519531 C 238.773438 304.941406 234.738281 285.019531 235.367188 265.539062 C 235.320312 257.730469 238.324219 256.796875 253.074219 258.839844 C 254.824219 282.488281 281.183594 283.109375 299.835938 261.324219 Z M 299.835938 261.324219 " fill-opacity="1" fill-rule="nonzero"/><path fill="rgb(94.898987%, 86.268616%, 0%)" d="M 273.25 344.304688 C 293.15625 336.71875 313.242188 326.734375 329.425781 316.882812 C 334.402344 314 335.078125 306.898438 328.082031 304.679688 C 312.929688 296.160156 304.679688 285.511719 306.429688 271.667969 C 306.695312 266.832031 300.691406 261.683594 299.074219 266.296875 C 285.847656 310.316406 243.167969 307.964844 249.042969 264.390625 C 249.355469 263.101562 249.667969 261.816406 249.984375 260.574219 C 242.316406 259.019531 239.355469 260.707031 239.714844 266.519531 L 245.632812 331.96875 C 247.113281 346.878906 259.351562 350.160156 273.25 344.304688 Z M 273.25 344.304688 " fill-opacity="1" fill-rule="nonzero"/><path fill="rgb(0%, 0%, 0%)" d="M 282.488281 166.152344 C 297.867188 186.03125 313.601562 236.125 301.140625 261.0625 C 286.523438 289.550781 253.4375 292.921875 252.003906 263.683594 C 254.066406 229.070312 256.039062 193.261719 232.1875 170.1875 C 228.464844 141.390625 215.195312 130.832031 208.964844 112.371094 L 188.25 97.460938 L 144.941406 103.007812 C 143.191406 113.523438 142.160156 123.773438 143.683594 133.714844 C 133.417969 147.558594 125.660156 161.535156 124.765625 175.867188 C 117.011719 196.414062 98.582031 213.851562 101.765625 254.40625 C 112.125 265.191406 126.605469 275.175781 139.023438 285.558594 C 154.625 298.558594 146.152344 313.289062 124.183594 309.207031 C 110.867188 294.652344 97.105469 280.367188 83.746094 265.855469 C 69.488281 255.828125 64.199219 242.960938 78.8125 223.4375 C 88.8125 210.214844 91.636719 181.503906 100.378906 169.921875 C 108.042969 158.519531 119.207031 148.3125 127.324219 136.910156 C 131.625 129.410156 132.972656 123.640625 132.300781 114.945312 L 130.460938 62.363281 C 129.25 24.199219 150.457031 3.878906 179.957031 4.5 C 213.402344 4.808594 240.839844 27.441406 241.199219 67.996094 C 244.023438 87.742188 238.148438 99.058594 253.976562 127.277344 C 270.070312 157.007812 272.582031 155.410156 282.488281 166.148438 Z M 282.488281 166.152344 " fill-opacity="1" fill-rule="nonzero"/><path fill="rgb(75.689697%, 75.689697%, 74.899292%)" d="M 224.472656 145.246094 L 225.863281 150.527344 C 222.234375 144.046875 217.882812 132.910156 212.414062 128.027344 C 210.753906 126.699219 208.601562 126.742188 207.304688 127.984375 C 200.039062 134.949219 182.015625 149.238281 167.582031 147.375 C 156.460938 146.265625 145.613281 138.855469 143.238281 130.824219 C 141.980469 125.054688 142.5625 120.308594 143.324219 115.472656 L 211.652344 114.363281 C 210.261719 120.308594 219.363281 134.996094 224.476562 145.246094 Z M 224.472656 145.246094 " fill-opacity="1" fill-rule="nonzero"/><path fill="rgb(75.689697%, 75.689697%, 74.899292%)" d="M 150.902344 58.714844 C 157.71875 58.714844 163.816406 67.101562 163.769531 78.683594 C 163.722656 86.449219 158.613281 88.445312 154.757812 91.863281 C 153.054688 93.414062 152.652344 101.800781 150.542969 101.800781 C 143.773438 101.800781 138.664062 89.867188 138.664062 78.683594 C 138.664062 67.546875 144.132812 58.714844 150.902344 58.714844 Z M 150.902344 58.714844 " fill-opacity="1" fill-rule="nonzero"/><path fill="rgb(100%, 100%, 100%)" d="M 151.667969 66 C 157.722656 66 161.9375 69.015625 162.429688 76.027344 C 162.789062 80.863281 161.488281 88.628906 158.082031 90.269531 C 156.511719 91.023438 151.085938 97.8125 149.203125 97.726562 C 141.535156 97.371094 139.609375 82.683594 140.191406 75.671875 C 140.730469 68.660156 145.660156 66 151.667969 66 Z M 151.667969 66 " fill-opacity="1" fill-rule="nonzero"/><path fill="rgb(0%, 0%, 0%)" d="M 150.101562 70.699219 C 154.269531 70.34375 158.125 75.046875 158.664062 81.171875 C 159.203125 87.292969 156.199219 92.617188 152.027344 92.972656 C 147.859375 93.328125 144.003906 88.625 143.464844 82.457031 C 142.925781 76.332031 145.929688 71.054688 150.101562 70.699219 Z M 150.101562 70.699219 " fill-opacity="1" fill-rule="nonzero"/><path fill="rgb(75.689697%, 75.689697%, 74.899292%)" d="M 196.855469 57.167969 C 206.675781 57.167969 214.699219 67.464844 214.699219 80.019531 C 214.699219 92.621094 206.675781 102.871094 196.855469 102.871094 C 187.039062 102.871094 179.101562 92.621094 179.101562 80.019531 C 179.101562 67.464844 187.039062 57.167969 196.855469 57.167969 Z M 196.855469 57.167969 " fill-opacity="1" fill-rule="nonzero"/><path fill="rgb(100%, 100%, 100%)" d="M 201.746094 65.953125 C 208.515625 68.347656 212.417969 73.628906 212.910156 79.265625 C 213.492188 85.742188 210.847656 93.0625 205.15625 97.367188 C 203.539062 98.566406 184.890625 91.289062 183.8125 88.539062 C 182.199219 84.589844 181.214844 77 182.425781 72.519531 C 182.917969 70.742188 184.574219 68.171875 187.042969 66.792969 C 190.941406 64.621094 196.679688 64.175781 201.746094 65.953125 Z M 201.746094 65.953125 " fill-opacity="1" fill-rule="nonzero"/><path fill="rgb(0%, 0%, 0%)" d="M 196.808594 69.640625 C 202.234375 69.640625 206.671875 74.785156 206.671875 81.042969 C 206.671875 87.34375 202.234375 92.492188 196.808594 92.492188 C 191.382812 92.492188 186.945312 87.34375 186.945312 81.042969 C 186.945312 74.785156 191.382812 69.640625 196.808594 69.640625 Z M 196.808594 69.640625 " fill-opacity="1" fill-rule="nonzero"/><path fill="rgb(90.589905%, 60.389709%, 0%)" d="M 164.484375 84.148438 C 169.101562 82.816406 176.410156 83.257812 181.476562 84.234375 C 186.542969 85.566406 200.039062 92.621094 214.339844 100.296875 C 216.175781 101.230469 216.714844 104.246094 214.339844 105.222656 C 210.664062 105.492188 216.984375 114.453125 210.527344 117.648438 C 200.84375 120.132812 185.332031 134.378906 177.664062 135.53125 C 173.40625 136.460938 169.011719 136.59375 164.261719 135.53125 C 149.285156 132.511719 145.339844 115.652344 138.300781 112.234375 C 136.375 110.238281 137.359375 106.777344 137.988281 106.066406 C 138.75 102.472656 154.980469 85.210938 164.484375 84.148438 Z M 164.484375 84.148438 " fill-opacity="1" fill-rule="nonzero"/><path fill="rgb(94.898987%, 87.059021%, 0%)" d="M 177.21875 84.984375 C 185.335938 85.871094 202.550781 96.121094 210.84375 100.25 C 212.90625 101.359375 212.773438 104.6875 210.933594 105.21875 C 208.960938 106.328125 208.378906 104.953125 206.808594 104.730469 C 204.300781 103.398438 200.175781 106.59375 196.902344 109.035156 C 178.027344 123.144531 174.261719 121.589844 159.019531 119.996094 C 153.726562 118.707031 150.273438 117.109375 148.75 115.867188 C 149.871094 109.65625 161.707031 86.09375 165.609375 85.5625 C 166.59375 84.273438 173.8125 84.230469 177.21875 84.984375 Z M 177.21875 84.984375 " fill-opacity="1" fill-rule="nonzero"/><path fill="rgb(71.759033%, 44.709778%, 0%)" d="M 180.496094 88.800781 L 182.425781 89.644531 C 183.859375 90.441406 182.109375 92.570312 180.539062 91.90625 L 177.714844 90.929688 C 176.058594 89.554688 178.03125 87.601562 180.496094 88.800781 Z M 180.496094 88.800781 " fill-opacity="1" fill-rule="nonzero"/><path fill="rgb(75.689697%, 75.689697%, 74.899292%)" d="M 241.960938 196.539062 C 241.871094 197.957031 241.332031 198.179688 240.121094 196.847656 C 236 189.75 208.15625 174.707031 194.617188 173.019531 C 192.0625 172.132812 192.195312 170.980469 194.707031 170.625 C 204.480469 170.625 212.011719 166.363281 220.53125 166.363281 C 222.863281 166.453125 225.105469 167.339844 226.402344 168.671875 C 229.585938 170.710938 241.15625 186.507812 241.960938 196.539062 Z M 241.960938 196.539062 " fill-opacity="1" fill-rule="nonzero"/><path fill="rgb(71.759033%, 64.309692%, 0%)" d="M 93.96875 256.671875 C 108.898438 271.089844 118.671875 292.921875 133.152344 312.667969 C 154.222656 337.785156 137.410156 363.832031 103.160156 355.976562 C 85.988281 349.585938 61.285156 350.296875 41.421875 343.820312 C 27.480469 340.445312 26.988281 333.613281 34.117188 320.257812 C 36.625 311.738281 36.851562 297.890625 34.519531 286.355469 C 33.265625 277.613281 37.34375 272.734375 46.757812 271.710938 C 54.738281 271.625 65.859375 274.816406 71.910156 257.914062 C 76.4375 249.835938 87.289062 249.617188 93.96875 256.671875 Z M 93.96875 256.671875 " fill-opacity="1" fill-rule="nonzero"/><path fill="rgb(94.898987%, 92.549133%, 0%)" d="M 77.109375 265.675781 C 76.617188 254.539062 86.253906 252.273438 92.710938 259.0625 C 104.234375 273.039062 114.769531 288.480469 124.273438 306.320312 C 139.425781 330.460938 126.917969 354.199219 104.054688 345.191406 C 92.710938 338.890625 65.585938 336.09375 50.972656 333.519531 C 41.195312 332.722656 39.898438 326.421875 43.617188 322.871094 C 48.730469 317.058594 49.265625 303.125 44.425781 291.234375 C 39.628906 283.867188 48.640625 275.746094 55.722656 279.117188 C 62.269531 282.933594 77.738281 274.328125 77.109375 265.675781 Z M 77.109375 265.675781 " fill-opacity="1" fill-rule="nonzero"/><g clip-path="url(#id1)"><g clip-path="url(#id2)"><g clip-path="url(#id3)"><g clip-path="url(#id4)"><path fill="rgb(0%, 0%, 0%)" d="M 289.054688 60.921875 C 288.769531 60.882812 288.5 60.738281 288.3125 60.5 C 288 60.101562 287.996094 59.546875 288.296875 59.140625 C 300.054688 43.234375 306.964844 33.527344 311.402344 26.6875 C 311.585938 26.40625 311.882812 26.222656 312.21875 26.183594 C 312.113281 25.871094 312.152344 25.523438 312.335938 25.234375 C 314.835938 21.300781 316.464844 18.398438 318.527344 14.726562 L 320.375 11.445312 C 320.597656 11.054688 321.035156 10.832031 321.484375 10.886719 C 321.863281 10.863281 322.304688 11.261719 322.425781 11.695312 L 323.347656 14.988281 C 325.953125 24.347656 327.390625 29.5 336.703125 53.902344 C 336.882812 54.371094 336.722656 54.90625 336.316406 55.203125 C 336.257812 55.246094 336.199219 55.285156 336.132812 55.3125 C 336.316406 55.503906 336.488281 55.691406 336.660156 55.867188 C 337.054688 56.285156 337.433594 56.679688 337.804688 57.058594 C 337.914062 57.167969 338.003906 57.300781 338.058594 57.445312 L 341.351562 66.007812 C 341.53125 66.476562 341.378906 67.007812 340.976562 67.308594 C 340.578125 67.609375 340.023438 67.605469 339.625 67.304688 C 331.726562 61.273438 326.175781 57.972656 321.070312 56.269531 C 320.785156 56.175781 320.546875 55.96875 320.417969 55.695312 C 320.285156 55.425781 320.269531 55.113281 320.371094 54.828125 C 320.652344 54.046875 320.867188 53.195312 321.007812 52.289062 C 321.703125 47.773438 320.140625 43.5 317.597656 42.949219 C 316.835938 42.796875 316.039062 42.976562 315.246094 43.523438 C 313.550781 44.683594 312.21875 47.226562 311.765625 50.160156 L 311.726562 50.40625 C 311.578125 51.480469 311.558594 52.574219 311.667969 53.652344 C 311.699219 53.957031 311.601562 54.257812 311.40625 54.492188 C 311.207031 54.722656 310.921875 54.863281 310.617188 54.882812 C 305.175781 55.199219 298.898438 56.980469 289.628906 60.84375 C 289.441406 60.921875 289.242188 60.945312 289.054688 60.921875 Z M 322.820312 54.507812 C 327.164062 56.113281 331.839844 58.804688 337.867188 63.191406 L 336.050781 58.46875 C 335.71875 58.132812 335.382812 57.777344 335.035156 57.410156 C 333.425781 55.710938 331.605469 53.792969 328.34375 51.546875 C 327.871094 51.222656 327.71875 50.597656 327.988281 50.09375 C 328.261719 49.589844 328.863281 49.371094 329.394531 49.582031 C 330.878906 50.183594 332.199219 50.800781 333.371094 51.457031 C 325.121094 29.722656 323.691406 24.582031 321.1875 15.589844 L 320.992188 14.90625 L 320.476562 15.824219 C 318.589844 19.183594 316.945312 22.113281 314.628906 25.792969 C 315.847656 27.4375 317.386719 29.347656 319.847656 31.585938 C 320.269531 31.96875 320.332031 32.609375 319.996094 33.070312 C 319.660156 33.535156 319.03125 33.667969 318.535156 33.386719 C 316.078125 31.980469 314.09375 30.5625 312.515625 29.074219 C 308.359375 35.386719 302.203125 44.042969 292.441406 57.292969 C 299.441406 54.566406 304.699219 53.15625 309.355469 52.730469 C 309.328125 51.847656 309.378906 50.964844 309.5 50.09375 C 309.5 50.089844 309.5 50.082031 309.503906 50.078125 L 309.542969 49.820312 C 310.097656 46.25 311.753906 43.207031 313.972656 41.679688 C 315.277344 40.785156 316.6875 40.472656 318.066406 40.765625 C 321.851562 41.582031 324.113281 46.796875 323.21875 52.636719 C 323.121094 53.28125 322.988281 53.910156 322.820312 54.507812 Z M 322.820312 54.507812 " fill-opacity="1" fill-rule="nonzero"/></g></g></g></g><g clip-path="url(#id5)"><path fill="rgb(95.289612%, 38.819885%, 9.408569%)" d="M 55.433594 35.664062 C 71.171875 35.664062 83.933594 48.425781 83.933594 64.164062 C 83.933594 79.902344 71.171875 92.664062 55.433594 92.664062 C 39.695312 92.664062 26.933594 79.902344 26.933594 64.164062 C 26.933594 48.425781 39.695312 35.664062 55.433594 35.664062 " fill-opacity="1" fill-rule="nonzero"/></g><path fill="rgb(100%, 100%, 100%)" d="M 36.054688 60.359375 C 38.15625 60.359375 39.859375 62.0625 39.859375 64.164062 C 39.859375 66.265625 38.15625 67.96875 36.054688 67.96875 C 33.953125 67.96875 32.25 66.265625 32.25 64.164062 C 32.25 62.0625 33.953125 60.359375 36.054688 60.359375 " fill-opacity="1" fill-rule="nonzero"/><path fill="rgb(100%, 100%, 100%)" d="M 46.261719 77.917969 C 42.933594 75.691406 40.457031 72.292969 39.425781 68.308594 C 40.628906 67.328125 41.398438 65.835938 41.398438 64.164062 C 41.398438 62.492188 40.628906 61 39.425781 60.019531 C 40.457031 56.035156 42.933594 52.636719 46.261719 50.410156 L 49.042969 55.070312 C 46.1875 57.082031 44.316406 60.402344 44.316406 64.164062 C 44.316406 67.925781 46.1875 71.246094 49.042969 73.257812 L 46.261719 77.917969 " fill-opacity="1" fill-rule="nonzero"/><path fill="rgb(100%, 100%, 100%)" d="M 68.417969 49.28125 C 67.367188 51.101562 65.039062 51.726562 63.222656 50.675781 C 61.402344 49.625 60.777344 47.296875 61.828125 45.476562 C 62.878906 43.65625 65.207031 43.035156 67.027344 44.085938 C 68.84375 45.136719 69.46875 47.464844 68.417969 49.28125 " fill-opacity="1" fill-rule="nonzero"/><path fill="rgb(100%, 100%, 100%)" d="M 48.109375 49.34375 C 51.699219 47.574219 55.882812 47.128906 59.847656 48.230469 C 60.09375 49.761719 61.003906 51.171875 62.453125 52.007812 C 63.898438 52.84375 65.574219 52.925781 67.023438 52.375 C 69.960938 55.257812 71.667969 59.101562 71.929688 63.097656 L 66.503906 63.179688 C 66.191406 59.695312 64.246094 56.417969 60.992188 54.539062 C 57.734375 52.65625 53.921875 52.613281 50.753906 54.085938 L 48.109375 49.34375 " fill-opacity="1" fill-rule="nonzero"/><path fill="rgb(100%, 100%, 100%)" d="M 61.828125 82.847656 C 60.777344 81.03125 61.402344 78.703125 63.222656 77.652344 C 65.039062 76.601562 67.367188 77.226562 68.417969 79.042969 C 69.46875 80.863281 68.84375 83.191406 67.027344 84.242188 C 65.207031 85.292969 62.878906 84.667969 61.828125 82.847656 " fill-opacity="1" fill-rule="nonzero"/><path fill="rgb(100%, 100%, 100%)" d="M 71.929688 65.230469 C 71.667969 69.226562 69.960938 73.070312 67.023438 75.953125 C 65.574219 75.402344 63.898438 75.484375 62.453125 76.320312 C 61.003906 77.15625 60.09375 78.566406 59.847656 80.097656 C 55.882812 81.199219 51.699219 80.753906 48.109375 78.980469 L 50.753906 74.242188 C 53.921875 75.710938 57.734375 75.667969 60.992188 73.789062 C 64.246094 71.910156 66.191406 68.628906 66.503906 65.148438 L 71.929688 65.230469 " fill-opacity="1" fill-rule="nonzero"/><g clip-path="url(#id6)"><g clip-path="url(#id7)"><g clip-path="url(#id8)"><g clip-path="url(#id9)"><path fill="rgb(47.059631%, 56.469727%, 61.178589%)" d="M 355.5 197.574219 C 355.503906 196.183594 355.34375 194.773438 354.914062 193.429688 C 354.070312 190.726562 352.351562 188.402344 350.4375 186.40625 C 348.503906 184.40625 346.34375 182.652344 344.074219 181.097656 C 339.730469 178.113281 339.949219 178.230469 336.996094 176.308594 C 330.449219 172.058594 327.378906 167.332031 328.109375 163.171875 C 328.460938 161.160156 331.949219 155.152344 339.597656 158.605469 C 341.414062 159.421875 343.089844 160.367188 344.675781 161.585938 C 346.132812 162.714844 350.351562 166.160156 351.242188 169.839844 C 351.019531 171.320312 351.398438 172.003906 353.214844 173.453125 C 354.578125 174.542969 355.941406 175.703125 355.65625 177.519531 C 355.640625 177.617188 355.695312 177.714844 355.820312 177.765625 C 355.90625 177.785156 355.996094 177.753906 356.046875 177.679688 C 356.511719 177.042969 357.910156 176.4375 358.738281 176.890625 C 358.832031 176.941406 358.933594 176.921875 359 176.847656 C 359.070312 176.777344 359.078125 176.667969 359.027344 176.585938 L 357.960938 174.871094 C 357.574219 174.25 357.183594 173.457031 356.921875 172.492188 C 356.847656 172.230469 356.792969 171.980469 356.75 171.738281 C 356.726562 171.570312 356.699219 171.40625 356.675781 171.242188 C 356.230469 167.898438 354.828125 164.097656 353.082031 161.4375 C 352.136719 159.96875 351.035156 158.613281 349.8125 157.390625 C 348.574219 156.175781 347.257812 155.046875 345.722656 154.191406 L 345.503906 154.578125 C 346.914062 155.472656 348.148438 156.65625 349.269531 157.898438 C 350.386719 159.152344 351.371094 160.523438 352.1875 161.972656 C 353.363281 164.015625 354.140625 166.246094 354.53125 168.527344 L 352.257812 163.757812 L 352.015625 165.164062 L 350.082031 161.558594 L 349.914062 162.992188 L 347.835938 160.3125 L 347.832031 161.308594 C 347.34375 160.789062 342.699219 157.527344 340.367188 155.957031 C 338.035156 154.386719 334.105469 148.445312 336.992188 142.804688 C 336.992188 142.804688 334.824219 141.308594 333.261719 140.265625 C 331.714844 139.253906 330.152344 138.300781 328.578125 137.363281 C 325.429688 135.488281 322.242188 133.703125 319.015625 131.976562 C 315.792969 130.257812 312.527344 128.613281 309.21875 127.0625 C 305.90625 125.519531 302.554688 124.050781 299.097656 122.851562 L 298.90625 123.375 C 302.265625 124.738281 305.511719 126.371094 308.71875 128.074219 C 311.917969 129.785156 315.074219 131.582031 318.183594 133.457031 C 321.289062 135.332031 324.359375 137.269531 327.367188 139.28125 C 328.867188 140.285156 330.363281 141.308594 331.8125 142.371094 C 332.117188 142.59375 332.433594 142.824219 332.746094 143.058594 C 330.855469 142.195312 328.945312 141.414062 327.023438 140.683594 C 323.550781 139.375 320.035156 138.234375 316.484375 137.214844 C 312.9375 136.199219 309.355469 135.316406 305.742188 134.59375 C 302.125 133.878906 298.476562 133.300781 294.796875 133.0625 L 294.75 133.570312 C 298.367188 134.050781 301.929688 134.863281 305.453125 135.8125 C 308.972656 136.765625 312.445312 137.875 315.871094 139.113281 C 319.292969 140.351562 322.675781 141.703125 325.96875 143.207031 C 328 144.136719 330 145.132812 331.9375 146.203125 C 330.335938 145.648438 328.71875 145.21875 327.097656 144.851562 C 323.882812 144.136719 320.644531 143.734375 317.40625 143.519531 C 314.164062 143.308594 310.921875 143.292969 307.695312 143.5 C 304.472656 143.71875 301.242188 144.121094 298.144531 145.058594 L 298.25 145.441406 C 301.355469 144.769531 304.554688 144.625 307.726562 144.664062 C 310.902344 144.714844 314.070312 144.988281 317.203125 145.445312 C 320.328125 145.902344 323.429688 146.546875 326.414062 147.46875 C 329.066406 148.289062 331.644531 149.339844 333.910156 150.707031 C 333.84375 151.453125 333.984375 153.023438 334.042969 153.808594 C 326.398438 155.324219 324.167969 160.800781 324.003906 163.984375 C 323.8125 167.71875 325.757812 171.066406 328.402344 173.5625 C 330.597656 175.609375 332.96875 177.144531 335.265625 178.695312 C 337.5625 180.238281 339.839844 181.738281 341.761719 183.519531 C 343.664062 185.25 345.039062 187.550781 346.019531 190.015625 C 347.976562 194.988281 347.882812 200.644531 346.976562 206.03125 L 347.570312 206.15625 C 348.863281 200.789062 349.433594 194.984375 347.707031 189.433594 C 347.132812 187.613281 346.320312 185.824219 345.242188 184.179688 C 346.703125 185.183594 348.105469 186.261719 349.40625 187.449219 C 351.328125 189.238281 353.050781 191.304688 353.976562 193.75 C 354.445312 194.96875 354.667969 196.261719 354.746094 197.574219 C 354.777344 198.894531 354.621094 200.21875 354.363281 201.53125 L 354.871094 201.652344 C 355.207031 200.328125 355.453125 198.964844 355.5 197.574219 Z M 355.5 197.574219 " fill-opacity="1" fill-rule="nonzero"/></g></g></g></g><g clip-path="url(#id10)"><g clip-path="url(#id11)"><g clip-path="url(#id12)"><g clip-path="url(#id13)"><path fill="rgb(77.249146%, 88.238525%, 64.709473%)" d="M 40.644531 218.25 C 31.542969 220.675781 22.191406 215.234375 19.753906 206.09375 L 16.253906 192.96875 L 10.574219 194.484375 L 6.3125 178.503906 L 39.296875 169.707031 C 48.6875 167.203125 58.34375 172.824219 60.859375 182.257812 L 68.480469 210.828125 Z M 40.644531 218.25 " fill-opacity="1" fill-rule="nonzero"/></g></g></g></g><g clip-path="url(#id14)"><g clip-path="url(#id15)"><g clip-path="url(#id16)"><g clip-path="url(#id17)"><path fill="rgb(40.779114%, 62.348938%, 21.958923%)" d="M 39.378906 174.578125 L 12.074219 181.859375 L 13.902344 188.707031 L 16.171875 188.101562 C 18.054688 187.597656 19.992188 188.726562 20.496094 190.617188 L 23.996094 203.742188 C 25.929688 210.988281 33.347656 215.308594 40.5625 213.382812 L 58.171875 208.6875 C 60.683594 208.015625 62.171875 205.429688 61.5 202.910156 L 56.621094 184.613281 C 54.609375 177.066406 46.886719 172.574219 39.378906 174.578125 Z M 39.378906 174.578125 " fill-opacity="1" fill-rule="nonzero"/></g></g></g></g><g clip-path="url(#id18)"><g clip-path="url(#id19)"><g clip-path="url(#id20)"><g clip-path="url(#id21)"><path fill="rgb(100%, 100%, 100%)" d="M 45.449219 181.515625 C 43.65625 181.992188 42.25 183.191406 41.433594 184.714844 C 39.96875 183.796875 38.152344 183.460938 36.359375 183.941406 C 32.914062 184.859375 30.863281 188.429688 31.789062 191.898438 L 34.070312 200.445312 L 37.476562 199.535156 L 35.199219 190.988281 C 34.777344 189.410156 35.710938 187.789062 37.277344 187.371094 C 38.839844 186.953125 40.457031 187.894531 40.878906 189.472656 L 43.15625 198.019531 L 46.566406 197.109375 L 44.285156 188.5625 C 43.867188 186.988281 44.800781 185.363281 46.363281 184.949219 C 47.929688 184.53125 49.546875 185.472656 49.96875 187.050781 L 52.398438 196.167969 C 52.988281 198.371094 51.679688 200.636719 49.488281 201.222656 L 35.855469 204.859375 C 33.660156 205.441406 31.398438 204.125 30.8125 201.921875 L 25.789062 183.089844 L 22.382812 184 L 27.402344 202.832031 C 28.496094 206.921875 32.695312 209.367188 36.765625 208.28125 L 50.402344 204.644531 C 54.472656 203.558594 56.898438 199.347656 55.808594 195.257812 L 53.375 186.140625 C 52.449219 182.671875 48.894531 180.597656 45.449219 181.515625 Z M 45.449219 181.515625 " fill-opacity="1" fill-rule="nonzero"/></g></g></g></g></svg>